<svg height="512.00001pt" viewBox="0 0 512.00001 512.00001" width="512.00001pt" xmlns="http://www.w3.org/2000/svg"><path d="m82.4375 82.4375h347.125v347.125h-347.125zm0 0" fill="#ececee"/><path d="m102.398438 102.398438h30.90625v307.203124h-30.90625zm0 0" fill="#dadadc"/><path d="m51.199219 153.601562-51.199219 51.199219v102.398438l51.199219 51.199219 51.199219-51.199219v-102.398438zm0 0" fill="#ffb258"/><path d="m307.199219 409.601562h-102.398438l-51.199219 51.199219 51.199219 51.199219h102.398438l51.199219-51.199219zm0 0" fill="#ffe675"/><path d="m460.800781 153.601562-51.199219 51.199219v102.398438l51.199219 51.199219 51.199219-51.199219v-102.398438zm0 0" fill="#ff9ec0"/><path d="m307.199219 0h-102.398438l-51.199219 51.199219 51.199219 51.199219h102.398438l51.199219-51.199219zm0 0" fill="#ff6881"/><g fill="#485b73"><path d="m102.398438 0h-69.605469c-18.109375 0-32.792969 14.683594-32.792969 32.792969v69.605469l51.199219 51.203124 51.199219-51.203124 51.203124-51.199219zm0 0"/><path d="m102.398438 409.601562-51.199219-51.203124-51.199219 51.203124v69.605469c0 18.109375 14.683594 32.792969 32.792969 32.792969h69.605469l51.203124-51.199219zm0 0"/><path d="m460.800781 358.398438-51.199219 51.203124-51.203124 51.199219 51.203124 51.199219h69.605469c18.109375 0 32.792969-14.683594 32.792969-32.792969v-69.605469zm0 0"/><path d="m479.207031 0h-69.605469l-51.203124 51.199219 51.203124 51.199219 51.199219 51.203124 51.199219-51.203124v-69.605469c0-18.109375-14.683594-32.792969-32.792969-32.792969zm0 0"/></g><path d="m102.398438 0h102.402343v102.398438h-102.402343zm0 0" fill="#91daff"/><path d="m307.199219 0h102.402343v102.398438h-102.402343zm0 0" fill="#ffb258"/><path d="m102.398438 409.601562h102.402343v102.398438h-102.402343zm0 0" fill="#ff9ec0"/><path d="m307.199219 409.601562h102.402343v102.398438h-102.402343zm0 0" fill="#91daff"/><path d="m409.601562 307.199219h102.398438v102.402343h-102.398438zm0 0" fill="#4cb4a4"/><path d="m409.601562 102.398438h102.398438v102.402343h-102.398438zm0 0" fill="#6dd1e0"/><path d="m0 307.199219h102.398438v102.402343h-102.398438zm0 0" fill="#ff6881"/><path d="m0 102.398438h102.398438v102.402343h-102.398438zm0 0" fill="#4cb4a4"/><path d="m167.359375 267.464844c-4.265625 0-7.722656-3.457032-7.722656-7.726563v-16.039062c0-4.269531 3.457031-7.726563 7.722656-7.726563 4.269531 0 7.726563 3.457032 7.726563 7.726563v16.039062c0 4.269531-3.457032 7.726563-7.726563 7.726563zm0 0" fill="#3a3c4c"/><path d="m344.640625 267.464844c-4.269531 0-7.726563-3.457032-7.726563-7.726563v-16.039062c0-4.269531 3.457032-7.726563 7.726563-7.726563 4.265625 0 7.722656 3.457032 7.722656 7.726563v16.039062c0 4.269531-3.457031 7.726563-7.722656 7.726563zm0 0" fill="#3a3c4c"/><path d="m256 276.027344c-10.753906 0-20.851562-4.488282-27.695312-12.320313-2.808594-3.210937-2.480469-8.089843.730468-10.902343 3.214844-2.808594 8.09375-2.480469 10.90625.734374 3.90625 4.472657 9.761719 7.035157 16.058594 7.035157s12.148438-2.5625 16.058594-7.035157c2.808594-3.214843 7.691406-3.542968 10.902344-.734374 3.214843 2.808593 3.542968 7.691406.734374 10.902343-6.84375 7.832031-16.9375 12.320313-27.695312 12.320313zm0 0" fill="#3a3c4c"/></svg>